<?xml version="1.0" encoding="iso-8859-1"?>
<!-- Generator: Adobe Illustrator 16.0.0, SVG Export Plug-In . SVG Version: 6.00 Build 0)  -->
<!DOCTYPE svg PUBLIC "-//W3C//DTD SVG 1.1//EN" "http://www.w3.org/Graphics/SVG/1.1/DTD/svg11.dtd">
<svg version="1.1" id="Capa_1" xmlns="http://www.w3.org/2000/svg" xmlns:xlink="http://www.w3.org/1999/xlink" x="0px" y="0px"
	 width="309.538px" height="309.538px" viewBox="0 0 309.538 309.538" fill="rgb(255, 255, 255)"
	 xml:space="preserve">
<g>
	<path d="M58.852,234.714c0,0.596,0,1.207,0,1.797c0,30.759,25.282,34.124,33.357,34.419v0.036h132.469l-34.435-50.932l8.896-12.039
		H94.718h-2.509v0.021l0,0c-30.119,0-33.119,25.616-33.23,26.704L58.852,234.714z"/>
	<path d="M276.331,138.735h-2.651h-1.533H92.209h-1.437H59.256c-0.085,1.173-0.267,2.271-0.267,3.505v3.011v74.42
		c4.894-8.026,14.269-16.415,31.783-16.87v2.542l0,0v-2.542v-0.109h1.432h2.514H203.05h69.092v2.636l0.145-2.63
		c0.062,0,1.621,0.072,4.045-0.114c0.792-0.062,1.693-0.155,2.65-0.285c5.598-0.734,13.604-2.78,19.6-8.466
		c5.686-5.386,8.575-13.101,8.575-22.919v-13.846c-3.252-7.459-10.864-17.22-28.175-18.16c-0.885-0.046-1.719-0.143-2.65-0.143
		V138.735L276.331,138.735z"/>
	<path d="M54.451,133.433h2.778h2.727h30.817h1.437h179.937h1.533h2.651v2.651v0.021l0,0v-0.021v-2.625
		c0.507,0,0.937,0.075,1.434,0.085l0,0c0.414,0.011,0.803,0.052,1.212,0.075c14.281,0.694,22.98,6.724,28.169,13.373
		c0.891,1.134,1.698,2.278,2.393,3.425V80.228v-1.686V72.98c0-10.128-2.905-18.001-8.627-23.415
		c-7.99-7.553-19.397-8.342-23.156-8.389c-0.777-0.011-1.254,0.01-1.274,0.01v-0.015l-0.155-2.6v2.6H0.637l37.836,41.696L0,133.428
		h54.451V133.433z"/>
</g>
<g>
</g>
<g>
</g>
<g>
</g>
<g>
</g>
<g>
</g>
<g>
</g>
<g>
</g>
<g>
</g>
<g>
</g>
<g>
</g>
<g>
</g>
<g>
</g>
<g>
</g>
<g>
</g>
<g>
</g>
</svg>
